<?xml version="1.0" ?><!DOCTYPE svg  PUBLIC '-//W3C//DTD SVG 1.1//EN'  'http://www.w3.org/Graphics/SVG/1.1/DTD/svg11.dtd'><svg height="2.7092mm" style="shape-rendering:geometricPrecision; text-rendering:geometricPrecision; image-rendering:optimizeQuality; fill-rule:evenodd; clip-rule:evenodd" version="1.1" viewBox="0 0 270.92 270.92" width="2.7092mm" xml:space="preserve" xmlns="http://www.w3.org/2000/svg" xmlns:xlink="http://www.w3.org/1999/xlink"><defs><style type="text/css">
   <![CDATA[
    .fil0 {fill:black;fill-rule:nonzero}
   ]]>
  </style></defs><g id="Layer_x0020_1"><path class="fil0" d="M25.73 245.27c2.14,-58.67 50.54,-105.74 109.73,-105.74 59.19,0 107.58,47.07 109.73,105.74l-219.46 0zm56.88 -166.76c0,-29.15 23.71,-52.85 52.85,-52.85 29.14,0 52.85,23.7 52.85,52.85 0,29.14 -23.71,52.84 -52.85,52.84 -29.14,0 -52.85,-23.7 -52.85,-52.84zm77.77 55.6c21.23,-9.56 36.06,-30.86 36.06,-55.6 0,-33.63 -27.35,-60.98 -60.98,-60.98 -33.63,0 -60.99,27.35 -60.99,60.98 0,24.74 14.84,46.04 36.06,55.6 -53.09,11.47 -93.01,58.75 -93.01,115.23 0,2.25 1.82,4.07 4.06,4.07l227.75 0c2.25,0 4.07,-1.82 4.07,-4.07 0,-56.48 -39.92,-103.76 -93.02,-115.23z"/></g></svg>